# xmcd
#
# Track frame offsets:
#	150
#	16120
#	36402
#	57219
#	75194
#
# Disc length: 1210 seconds
#
# Revision: 1
# Processed by: cddbd v1.5.1PL0 Copyright (c) Steve Scherf et al.
# Submitted via: audiograbber 1.83.01
#
DISCID=2c04b805
DTITLE=Turbolenz - Ich dachte du liebst mich?
DYEAR=2004
DGENRE=Pop
TTITLE0=Ich Dachte Du Liebst Mich
TTITLE1=Schau Mir Tiefer In Die Augen
TTITLE2=Diese Welt Ist Wunderbar
TTITLE3=Depression
TTITLE4=Ich Dachte Du Liebst Mich
EXTD=
EXTT0=
EXTT1=
EXTT2=
EXTT3=
EXTT4=
PLAYORDER=
